#!OML:ASF F:\VICON\USERDATA\INSTALL\rory3\rory3.ASF
:FULLY-SPECIFIED
:DEGREES
109
root 1.08939 15.4875 -14.8104 29.1708 -1.44955 0.676114
lowerback 20.6693 0.286806 0.18782
upperback 0.791963 0.610346 1.70772
thorax -10.7659 0.327141 1.5991
lowerneck -20.6974 -4.06724 -8.94662
upperneck 16.3567 -4.35161 7.09295
head 8.88002 -1.84497 3.30184
rclavicle 3.97569e-015 3.57812e-015
rhumerus -23.9772 5.17336 -83.6581
rradius 59.9792
rwrist -3.02168
rhand -11.0031 13.875
rfingers 7.12502
rthumb 15.0175 -15.5604
lclavicle 3.97569e-015 3.57812e-015
lhumerus -21.5267 -5.8353 85.9313
lradius 58.5319
lwrist 7.82466
lhand -20.8988 20.6504
lfingers 7.12502
lthumb 5.47207 50.5597
rfemur -64.3823 2.77648 22.3539
rtibia 73.8272
rfoot -25.7163 -12.7504
rtoes -7.43797
lfemur -63.4374 -0.394477 -23.9237
ltibia 69.2166
lfoot -30.0069 3.05938
ltoes -4.35548
110
root 1.05605 15.5041 -14.6797 27.9684 -0.285755 1.08717
lowerback 21.5197 -0.102863 0.274
upperback 0.9864 0.14745 1.86276
thorax -11.0072 0.112619 1.86455
lowerneck -20.7754 -4.07264 -8.91476
upperneck 16.4351 -4.37522 7.13776
head 8.92302 -1.84789 3.30949
rclavicle 4.77083e-015 3.18055e-015
rhumerus -24.2927 5.32342 -83.4528
rradius 59.7213
rwrist -2.64015
rhand -11.1478 15.0446
rfingers 7.12502
rthumb 14.8781 -14.4011
lclavicle 4.77083e-015 3.18055e-015
lhumerus -21.8371 -6.26696 86.062
lradius 58.7679
lwrist 7.73871
lhand -20.5712 25.6343
lfingers 7.12502
lthumb 5.78839 55.5352
rfemur -62.6704 2.00752 22.5981
rtibia 74.3588
rfoot -26.0056 -13.5254
rtoes -9.01405
lfemur -61.5364 -1.18151 -23.6272
ltibia 69.5045
lfoot -30.5767 2.60273
ltoes -4.40875
111
root 1.06519 15.4418 -14.6115 28.6951 -0.951369 0.53383
lowerback 20.4897 0.220617 0.338524
upperback 0.770935 0.580375 1.91338
thorax -10.6899 0.311854 1.74838
lowerneck -21.1115 -4.05517 -8.83183
upperneck 16.5562 -4.35337 7.13934
head 9.01954 -1.82613 3.2994
rclavicle -2.78299e-015 3.18055e-015
rhumerus -24.5095 5.45667 -83.1379
rradius 59.7041
rwrist -2.06412
rhand -11.363 16.3273
rfingers 7.12502
rthumb 14.6708 -13.1337
lclavicle -2.78299e-015 3.18055e-015
lhumerus -21.7967 -6.64377 86.1504
lradius 58.856
lwrist 7.05936
lhand -20.2956 27.1414
lfingers 7.12502
lthumb 6.05447 57.0348
rfemur -63.733 2.8726 22.6555
rtibia 74.9832
rfoot -25.8238 -13.2549
rtoes -9.78023
lfemur -62.5174 -0.609966 -23.335
ltibia 70.2069
lfoot -30.5962 2.82882
ltoes -5.17166
112
root 1.04149 15.4468 -14.4975 27.9739 -0.386098 0.50828
lowerback 20.722 0.108772 0.428754
upperback 0.932445 0.475435 2.09096
thorax -10.6361 0.262907 1.92354
lowerneck -21.498 -4.06019 -8.69945
upperneck 16.6563 -4.37234 7.13581
head 9.12004 -1.81966 3.27309
rclavicle 0 -5.1684e-015
rhumerus -24.7186 5.55881 -82.8306
rradius 59.4093
rwrist -1.38178
rhand -11.5724 16.7428
rfingers 7.12502
rthumb 14.469 -12.7327
lclavicle 0 -5.1684e-015
lhumerus -21.7685 -6.9322 86.1893
lradius 59.0098
lwrist 5.99052
lhand -19.0257 27.2332
lfingers 7.12502
lthumb 7.28031 57.0879
rfemur -62.3595 2.78037 22.9128
rtibia 75.2308
rfoot -26.2323 -13.716
rtoes -10.3123
lfemur -61.327 -0.864804 -22.9283
ltibia 70.4609
lfoot -30.9167 2.86774
ltoes -6.49689
113
root 1.01344 15.4622 -14.3728 27.0516 0.287312 0.764453
lowerback 21.179 -0.0945595 0.311712
upperback 1.0919 0.201787 2.22402
thorax -10.7032 0.144917 2.22167
lowerneck -21.7955 -4.10927 -8.69639
upperneck 16.6705 -4.44885 7.28359
head 9.1874 -1.83312 3.31215
rclavicle 2.78299e-015 -3.18055e-015
rhumerus -25.0747 5.79835 -82.6106
rradius 58.6846
rwrist 0.294003
rhand -13.3489 18.6042
rfingers 7.12502
rthumb 12.7569 -10.9861
lclavicle 2.78299e-015 -3.18055e-015
lhumerus -22.0372 -7.21791 86.212
lradius 59.455
lwrist 5.41253
lhand -18.1515 26.6054
lfingers 7.12502
lthumb 8.12408 56.4292
rfemur -60.6851 2.47795 22.9594
rtibia 75.3749
rfoot -26.6814 -14.1005
rtoes -10.478
lfemur -59.8095 -1.36439 -22.7215
ltibia 70.6186
lfoot -31.1842 2.80284
ltoes -7.4919
114
root 1.0065 15.4236 -14.2844 27.5524 -0.474768 0.408989
lowerback 20.1996 0.24549 -0.00938304
upperback 0.901081 0.563063 2.24146
thorax -10.3895 0.328958 2.31151
lowerneck -22.1314 -4.15264 -8.71051
upperneck 16.7308 -4.51873 7.46459
head 9.27842 -1.83992 3.36733
rclavicle 7.95139e-016 1.11319e-014
rhumerus -25.5551 5.96498 -82.4071
rradius 59.0014
rwrist 1.16572
rhand -13.5996 18.9014
rfingers 7.12502
rthumb 12.5152 -10.7038
lclavicle 7.95139e-016 1.11319e-014
lhumerus -22.319 -7.61271 86.1779
lradius 59.9647
lwrist 5.02393
lhand -20.5151 23.6146
lfingers 7.12502
lthumb 5.84254 53.5141
rfemur -61.1565 3.44316 22.8168
rtibia 75.5233
rfoot -26.5738 -13.7623
rtoes -10.254
lfemur -60.3162 -0.744694 -22.6161
ltibia 70.927
lfoot -31.0099 2.93534
ltoes -8.19941
115
root 0.991148 15.4374 -14.1482 27.067 -0.218212 0.597122
lowerback 19.9394 0.219846 -0.149225
upperback 0.920658 0.494659 2.24077
thorax -10.2211 0.302467 2.40776
lowerneck -22.4681 -4.23793 -8.57966
upperneck 16.9787 -4.67438 7.51369
head 9.43596 -1.89128 3.34174
rclavicle -3.18055e-015 2.06736e-014
rhumerus -26.2995 6.05228 -82.2429
rradius 59.363
rwrist 1.71965
rhand -14.331 19.1046
rfingers 7.12502
rthumb 11.81 -10.5424
lclavicle -3.18055e-015 2.06736e-014
lhumerus -22.677 -8.12298 86.1762
lradius 60.5144
lwrist 4.54391
lhand -22.7739 21.4012
lfingers 7.12502
lthumb 3.66146 51.3495
rfemur -59.7875 3.35722 22.7547
rtibia 75.2817
rfoot -26.9221 -14.1853
rtoes -10.873
lfemur -59.1804 -1.00447 -22.6097
ltibia 70.8682
lfoot -31.1084 2.88049
ltoes -8.78526
